<?xml version="1.0" ?><svg data-name="Layer 2" id="Layer_2" viewBox="0 0 250 250" xmlns="http://www.w3.org/2000/svg"><title/><path d="M196.66,53.75c-.53-.79-1.11-1.66-1.44-2.22,4.92-15.92.16-29.52-1.43-34-.14-.42-.26-.73-.31-.93a3,3,0,0,0-3.87-2.26,14.19,14.19,0,0,1-4,.66c-4.47.28-9.54.6-30.19,13.1l0,0-.16,0A117.59,117.59,0,0,0,126.07,24,115.87,115.87,0,0,0,97.4,28l-.6.09-3.74-2.24C76.41,15.69,71.24,15.29,66.68,14.93a17.73,17.73,0,0,1-4.11-.65,3,3,0,0,0-3.79,2.27c-.06.2-.17.51-.32.93C56.85,22,52,35.47,57,51.59,43.64,67.75,39.62,93,47.25,113.29c5.55,14.7,19.09,33.13,52,39.49-2.63,3.52-5.46,7.58-6.69,14.51-3.91,1.18-6.94,1.34-9.67.54-3.38-1-5.95-3.25-8.36-7.29-7.85-13.19-19.77-20.43-31.84-19.4A3,3,0,0,0,40,144.39l1.37,15.45a3.25,3.25,0,0,0,3.37,2.94c4-.19,8.46,4.32,11.15,8.86,5.19,8.74,12.22,14.47,20.89,17a35,35,0,0,0,14.92,1.13v36.46a3,3,0,0,0,2.29,2.92,137.33,137.33,0,0,0,64.33,0,3,3,0,0,0,2.3-2.92V175.2c0-12.18-3.84-17.41-7.61-22.41,32.91-6.37,46.45-24.8,52-39.51C216.3,83.23,202,61.81,196.66,53.75Zm2.69,57.42c-5.25,13.89-18.54,31.5-52.06,36.5a3,3,0,0,0-2.07,4.62c.95,1.44,1.92,2.73,2.85,4,3.5,4.65,6.52,8.66,6.5,18.94h0v48.68a132,132,0,0,1-56.92,0V186.23A3,3,0,0,0,94,183.3a29.91,29.91,0,0,1-15.58-.38c-7.18-2.12-13-6.95-17.43-14.34-3-5.13-8.12-10.48-13.91-11.6l-.88-9.9c8.72.53,17.2,6.52,23.15,16.53,3.2,5.37,7,8.54,11.83,10,4.34,1.27,9.12.89,15-1.2a3,3,0,0,0,2-2.46c.87-7,3.5-10.46,6.28-14.16.83-1.1,1.69-2.24,2.5-3.48a3,3,0,0,0,.49-1.65,3,3,0,0,0-2.56-3c-33.53-5-46.82-22.61-52.06-36.5-7-18.46-3.24-41.52,9.05-56.08A5,5,0,0,0,63,50.59c-4.43-13.38-1-25,.7-29.93.89.13,1.71.19,2.51.25,3.89.31,8.3.65,23.75,10l3.78,2.27a4.53,4.53,0,0,0,4,.78,2.07,2.07,0,0,1,.43-.08,2.62,2.62,0,0,0,.56-.09A110.13,110.13,0,0,1,126.07,30a111.79,111.79,0,0,1,27.81,4,3.86,3.86,0,0,0,.49.09l1.22.12a3,3,0,0,0,1.66-.31,8.87,8.87,0,0,0,1.26-.62c19.4-11.76,23.88-12,27.47-12.26.82-.05,1.64-.1,2.58-.24,1.7,5.05,5,16.72.65,29.9-.61,1.88.35,3.32,2.46,6.48C197,65.13,209.6,84,199.35,111.17Z"/></svg>