<svg width="45" height="45" viewBox="0 0 50 50" fill="none" xmlns="http://www.w3.org/2000/svg">
<path fill-rule="evenodd" clip-rule="evenodd" d="M8.33333 5.20833C6.60744 5.20833 5.20833 6.60744 5.20833 8.33333C5.20833 10.0592 6.60744 11.4583 8.33333 11.4583C10.0592 11.4583 11.4583 10.0592 11.4583 8.33333C11.4583 6.60744 10.0592 5.20833 8.33333 5.20833ZM3.125 8.33333C3.125 5.45685 5.45685 3.125 8.33333 3.125C11.2098 3.125 13.5417 5.45685 13.5417 8.33333C13.5417 11.2098 11.2098 13.5417 8.33333 13.5417C5.45685 13.5417 3.125 11.2098 3.125 8.33333Z" fill="black"/>
<path fill-rule="evenodd" clip-rule="evenodd" d="M3.125 18.75C3.125 18.1747 3.59138 17.7083 4.16667 17.7083H12.5C13.0753 17.7083 13.5417 18.1747 13.5417 18.75V45.8333C13.5417 46.4085 13.0753 46.875 12.5 46.875H4.16667C3.59138 46.875 3.125 46.4085 3.125 45.8333V18.75ZM5.20833 19.7917V44.7917H11.4583V19.7917H5.20833Z" fill="black"/>
<path fill-rule="evenodd" clip-rule="evenodd" d="M17.7083 18.75C17.7083 18.1747 18.1747 17.7083 18.75 17.7083H27.0833C27.6561 17.7083 28.1215 18.1707 28.125 18.7435L28.1438 21.729L30.6354 19.647C32.1342 18.3945 34.0254 17.7083 35.9788 17.7083H36.4583C42.2113 17.7083 46.875 22.3721 46.875 28.125V45.8333C46.875 46.4085 46.4086 46.875 45.8333 46.875H37.5C36.9248 46.875 36.4583 46.4085 36.4583 45.8333V33.3333C36.4583 31.0321 34.5929 29.1667 32.2917 29.1667C29.9904 29.1667 28.125 31.0321 28.125 33.3333V45.8333C28.125 46.4085 27.6586 46.875 27.0833 46.875H18.75C18.1747 46.875 17.7083 46.4085 17.7083 45.8333V18.75ZM19.7917 19.7917V44.7917H26.0417V33.3333C26.0417 29.8815 28.8398 27.0833 32.2917 27.0833C35.7436 27.0833 38.5417 29.8815 38.5417 33.3333V44.7917H44.7917V28.125C44.7917 23.5227 41.0606 19.7917 36.4583 19.7917H35.9788C34.5138 19.7917 33.0954 20.3063 31.9713 21.2456L27.7838 24.7446C27.4744 25.0031 27.0436 25.06 26.6777 24.8902C26.3119 24.7206 26.0767 24.355 26.0742 23.9519L26.0481 19.7917H19.7917Z" fill="black"/>
</svg>
