<svg width="38" height="38" viewBox="0 0 50 50" fill="none" xmlns="http://www.w3.org/2000/svg">
<path d="M2.16796 4.63867C1.22069 4.93164 0.48827 5.72266 0.292958 6.66992C0.224598 7.02148 0.195302 12.7344 0.214833 25.293L0.24413 43.4082L0.449208 43.8574C0.71288 44.4238 1.27929 44.9902 1.84569 45.2539L2.29491 45.459H25H47.7051L48.1543 45.2539C48.7207 44.9902 49.2871 44.4238 49.5508 43.8574L49.7558 43.4082V25V6.5918L49.5508 6.14258C49.2871 5.57617 48.7207 5.00977 48.1543 4.74609L47.7051 4.54102L25.1465 4.52148C6.40624 4.51172 2.51952 4.53125 2.16796 4.63867ZM47.6269 6.25C48.2226 6.61133 48.2519 6.74805 48.2226 9.58984L48.1933 12.1582H25H1.80663L1.77733 9.58984C1.74804 6.74805 1.77733 6.61133 2.37304 6.25C2.67577 6.05469 3.0371 6.05469 25 6.05469C46.9629 6.05469 47.3242 6.05469 47.6269 6.25ZM48.2226 28.3496C48.2422 44.5117 48.291 43.3496 47.6269 43.75C47.3242 43.9453 46.9629 43.9453 25.0195 43.9453C0.380847 43.9453 2.3535 43.9941 1.95311 43.3301C1.7578 43.0273 1.7578 42.7246 1.7578 28.4082C1.7578 20.3711 1.7871 13.7695 1.82616 13.7402C1.85546 13.7012 12.3047 13.6816 25.0391 13.6914L48.1933 13.7207L48.2226 28.3496Z" fill="black"/>
<path d="M6.34764 8.27148C5.97655 8.61328 5.84959 9.0332 5.99608 9.47266C6.12303 9.86328 6.64061 10.2539 7.03123 10.2539C7.42186 10.2539 7.93944 9.86328 8.06639 9.47266C8.30076 8.76953 7.76365 8.00781 7.03123 8.00781C6.74803 8.00781 6.56248 8.07617 6.34764 8.27148Z" fill="black"/>
<path d="M10.8789 8.19335C10.2929 8.55468 10.2051 9.39453 10.7031 9.90234C11.4648 10.6641 12.7148 10.0195 12.5683 8.94531C12.4609 8.14453 11.5918 7.7539 10.8789 8.19335Z" fill="black"/>
<path d="M15.1758 8.33984C14.8926 8.62305 14.8438 8.74023 14.8438 9.11133C14.8438 9.84375 15.4395 10.3516 16.1426 10.2148C16.5918 10.127 17.0898 9.56055 17.0898 9.13086C17.0898 8.81836 16.7676 8.29101 16.4941 8.1543C16.0156 7.90039 15.5469 7.96875 15.1758 8.33984Z" fill="black"/>
<path d="M7.51953 24.8047C7.40234 24.9219 7.32422 25.127 7.32422 25.3125C7.32422 25.4883 7.65625 26.6895 8.05664 27.9785C8.4668 29.2676 8.97461 30.8887 9.18945 31.5723C9.56055 32.7637 9.59961 32.832 9.91211 32.9688C10.2637 33.1152 10.6055 33.0469 10.8105 32.8027C10.8691 32.7246 11.2402 31.6504 11.6211 30.4199C12.0117 29.1797 12.3535 28.1348 12.3828 28.0859C12.4023 28.0371 12.7441 29.0039 13.1348 30.2344C13.5156 31.4648 13.8867 32.5684 13.9551 32.6953C14.1309 33.0273 14.4922 33.1348 14.8926 32.9688C15.2051 32.832 15.2344 32.7734 15.7129 31.2793C17.5488 25.4883 17.5879 25.3516 17.4707 25.0684C17.2656 24.5703 16.5918 24.4336 16.2402 24.8242C16.123 24.9609 15.752 25.9766 15.3418 27.2852C14.9609 28.5254 14.6289 29.5508 14.5996 29.5703C14.5801 29.5898 14.3164 28.8281 14.0137 27.8613C13.1543 25.127 13.0957 24.9805 12.9297 24.7852C12.7148 24.5606 12.1973 24.5508 11.9238 24.7754C11.7676 24.9023 11.5137 25.5859 11.0156 27.1973C10.6348 28.4277 10.293 29.4727 10.2539 29.5215C10.2246 29.5606 9.87305 28.5742 9.48242 27.3242C9.05273 25.9473 8.69141 24.9609 8.56445 24.8242C8.31055 24.5508 7.79297 24.5313 7.51953 24.8047Z" fill="black"/>
<path d="M20.1855 24.7266C19.7754 25.0488 19.7949 25.2637 20.5176 27.5586C22.2461 33.0567 22.1484 32.8027 22.4609 32.959C22.7832 33.125 23.1543 33.0762 23.3691 32.832C23.4473 32.7344 23.8379 31.6406 24.2285 30.3906C24.6191 29.1504 24.9707 28.125 25 28.125C25.0293 28.125 25.3808 29.1504 25.7715 30.3906C26.1621 31.6406 26.5332 32.7246 26.5918 32.8027C26.7969 33.0469 27.1387 33.1152 27.4902 32.9688C27.8027 32.832 27.832 32.7734 28.3105 31.2793C30.1172 25.5762 30.166 25.4004 30.0586 25.0977C29.8828 24.5703 29.1992 24.4238 28.8379 24.8242C28.7207 24.9609 28.3496 25.9668 27.9394 27.2949C27.5488 28.5254 27.2168 29.5508 27.1973 29.5801C27.1387 29.6289 27.1973 29.7754 26.3769 27.1484C25.6445 24.834 25.5273 24.6094 25 24.6094C24.4726 24.6094 24.3555 24.834 23.623 27.1484C22.8027 29.7754 22.8613 29.6289 22.8027 29.5801C22.7832 29.5508 22.4512 28.5254 22.0605 27.2949C21.6504 25.9668 21.2793 24.9609 21.1621 24.8242C20.9375 24.5801 20.4492 24.5313 20.1855 24.7266Z" fill="black"/>
<path d="M32.8027 24.707C32.7148 24.7559 32.5879 24.9219 32.5293 25.0684C32.4121 25.3613 32.4414 25.459 34.2383 31.1328C34.7656 32.7832 34.7852 32.832 35.1074 32.9688C35.459 33.1152 35.8008 33.0469 36.0059 32.8027C36.0645 32.7246 36.4355 31.6211 36.8359 30.332C37.2461 29.0527 37.5977 28.0371 37.627 28.0859C37.6465 28.1348 37.9883 29.1797 38.3789 30.4199C38.7598 31.6504 39.1309 32.7246 39.1895 32.8027C39.3945 33.0469 39.7363 33.1152 40.0879 32.9688C40.4004 32.832 40.4395 32.7637 40.8203 31.5234C41.0449 30.8106 41.5527 29.209 41.9434 27.959C42.8223 25.2051 42.8223 25.1465 42.4805 24.8047C42.207 24.5313 41.6895 24.5508 41.4355 24.8242C41.3184 24.9609 40.9473 25.9668 40.5176 27.3242C40.127 28.5742 39.7754 29.5606 39.7461 29.5215C39.707 29.4727 39.3652 28.4277 38.9844 27.1973C38.252 24.834 38.125 24.6094 37.6074 24.6094C37.1875 24.6094 36.9434 24.8633 36.7285 25.5078C36.6211 25.8496 36.2891 26.9043 35.9863 27.8613C35.6836 28.8281 35.4199 29.5899 35.4004 29.5703C35.3711 29.5508 35.0391 28.5254 34.6582 27.2852C34.248 25.9766 33.877 24.9609 33.7598 24.8242C33.5449 24.5996 33.0859 24.541 32.8027 24.707Z" fill="black"/>
</svg>
